<mxfile host="app.diagrams.net" modified="2025-02-20T02:55:10.584Z" agent="Mozilla/5.0 (Macintosh; Intel Mac OS X 10.15; rv:135.0) Gecko/20100101 Firefox/135.0" etag="U8CIgKAWrezEo93sgo_J" version="24.5.5" type="github">
  <diagram name="Page-1" id="9gDON24UMvfKa1M8-TYA">
    <mxGraphModel dx="1189" dy="794" grid="1" gridSize="10" guides="1" tooltips="1" connect="1" arrows="1" fold="1" page="1" pageScale="1" pageWidth="850" pageHeight="1100" math="0" shadow="0">
      <root>
        <mxCell id="0" />
        <mxCell id="1" parent="0" />
        <mxCell id="JMQZ7OvkL0Ce8rFrd2Mk-9" value="" style="edgeStyle=orthogonalEdgeStyle;rounded=0;orthogonalLoop=1;jettySize=auto;html=1;" edge="1" parent="1" source="JMQZ7OvkL0Ce8rFrd2Mk-1" target="JMQZ7OvkL0Ce8rFrd2Mk-8">
          <mxGeometry relative="1" as="geometry" />
        </mxCell>
        <mxCell id="JMQZ7OvkL0Ce8rFrd2Mk-1" value="HST multiwavelength&lt;br&gt;fux" style="rounded=1;whiteSpace=wrap;html=1;" vertex="1" parent="1">
          <mxGeometry x="130" y="310" width="120" height="60" as="geometry" />
        </mxCell>
        <mxCell id="JMQZ7OvkL0Ce8rFrd2Mk-8" value="&lt;b&gt;SED&lt;/b&gt;" style="whiteSpace=wrap;html=1;rounded=1;" vertex="1" parent="1">
          <mxGeometry x="500" y="310" width="120" height="60" as="geometry" />
        </mxCell>
        <mxCell id="JMQZ7OvkL0Ce8rFrd2Mk-10" value="Lephars SED" style="text;strokeColor=none;align=center;fillColor=none;html=1;verticalAlign=middle;whiteSpace=wrap;rounded=0;" vertex="1" parent="1">
          <mxGeometry x="310" y="300" width="100" height="30" as="geometry" />
        </mxCell>
        <mxCell id="JMQZ7OvkL0Ce8rFrd2Mk-12" value="fitting" style="text;strokeColor=none;align=center;fillColor=none;html=1;verticalAlign=middle;whiteSpace=wrap;rounded=0;" vertex="1" parent="1">
          <mxGeometry x="310" y="350" width="100" height="30" as="geometry" />
        </mxCell>
      </root>
    </mxGraphModel>
  </diagram>
</mxfile>
